<?xml version="1.0" encoding="utf-8"?>
<!-- Generator: Adobe Illustrator 21.0.0, SVG Export Plug-In . SVG Version: 6.00 Build 0)  -->
<svg version="1.1" id="Layer_1" xmlns="http://www.w3.org/2000/svg" xmlns:xlink="http://www.w3.org/1999/xlink" x="0px" y="0px"
	 viewBox="0 0 2834.6 2026.7" style="enable-background:new 0 0 2834.6 2026.7;" xml:space="preserve">
<style type="text/css">
	.st0{fill:#FFF800;}
</style>
<g>
	<g>
		<path class="st0" d="M79.7,197.4c1.8,0,1.8-2.9,0-2.9C77.9,194.5,77.9,197.4,79.7,197.4L79.7,197.4z"/>
	</g>
	<g>
		<path class="st0" d="M157.6,253.8c1.8,0,1.8-2.9,0-2.9C155.7,250.9,155.7,253.8,157.6,253.8L157.6,253.8z"/>
	</g>
	<g>
		<path class="st0" d="M258.6,259.9c1.8,0,1.8-2.9,0-2.9C256.8,257,256.8,259.9,258.6,259.9L258.6,259.9z"/>
	</g>
	<g>
		<path class="st0" d="M568.4,274.3c1.8,0,1.8-2.9,0-2.9C566.5,271.4,566.5,274.3,568.4,274.3L568.4,274.3z"/>
	</g>
	<g>
		<path class="st0" d="M919.9,670.4c1.8,0,1.8-2.9,0-2.9C918,667.6,918,670.4,919.9,670.4L919.9,670.4z"/>
	</g>
	<g>
		<path class="st0" d="M935.7,486c1.8,0,1.8-2.9,0-2.9C933.9,483.2,933.9,486,935.7,486L935.7,486z"/>
	</g>
	<g>
		<path class="st0" d="M348,546.6c1.8,0,1.8-2.9,0-2.9S346.1,546.6,348,546.6L348,546.6z"/>
	</g>
	<g>
		<path class="st0" d="M326.3,669c1.8,0,1.8-2.9,0-2.9C324.5,666.1,324.5,669,326.3,669L326.3,669z"/>
	</g>
	<g>
		<path class="st0" d="M299,414c0-0.5,0-1,0-1.4c0-0.8-0.7-1.5-1.4-1.4c-0.8,0.1-1.4,0.6-1.4,1.4c0,0.5,0,1,0,1.4
			c0,0.8,0.7,1.5,1.4,1.4C298.3,415.4,299,414.8,299,414L299,414z"/>
	</g>
	<g>
		<path class="st0" d="M1153.2,353.5c1.8,0,1.8-2.9,0-2.9C1151.4,350.6,1151.4,353.5,1153.2,353.5L1153.2,353.5z"/>
	</g>
	<g>
		<path class="st0" d="M1405.3,481.7c1.8,0,1.8-2.9,0-2.9C1403.5,478.9,1403.5,481.7,1405.3,481.7L1405.3,481.7z"/>
	</g>
	<g>
		<path class="st0" d="M1085.5,844.7c1.8,0,1.8-2.9,0-2.9C1083.7,841.9,1083.7,844.7,1085.5,844.7L1085.5,844.7z"/>
	</g>
	<g>
		<path class="st0" d="M391.9,282.7c3.7,0,3.7-5.7,0-5.7C388.2,276.9,388.2,282.7,391.9,282.7L391.9,282.7z"/>
	</g>
	<g>
		<path class="st0" d="M442.6,71.2c3.7,0,3.7-5.7,0-5.7C438.9,65.5,438.9,71.2,442.6,71.2L442.6,71.2z"/>
	</g>
	<g>
		<path class="st0" d="M238.5,203.8c3.7,0,3.7-5.7,0-5.7S234.8,203.8,238.5,203.8L238.5,203.8z"/>
	</g>
	<g>
		<path class="st0" d="M680.9,227.6c3.7,0,3.7-5.7,0-5.7C677.2,221.8,677.2,227.6,680.9,227.6L680.9,227.6z"/>
	</g>
	<g>
		<path class="st0" d="M893.8,617.8c3.7,0,3.7-5.7,0-5.7S890.1,617.8,893.8,617.8L893.8,617.8z"/>
	</g>
	<g>
		<path class="st0" d="M750.9,719.1c3.7,0,3.7-5.7,0-5.7C747.1,713.3,747.1,719.1,750.9,719.1L750.9,719.1z"/>
	</g>
	<g>
		<path class="st0" d="M960.9,808.4c3.7,0,3.7-5.7,0-5.7C957.2,802.7,957.2,808.4,960.9,808.4L960.9,808.4z"/>
	</g>
	<g>
		<path class="st0" d="M822.4,851.7c3.7,0,3.7-5.7,0-5.7C818.7,845.9,818.7,851.7,822.4,851.7L822.4,851.7z"/>
	</g>
	<g>
		<path class="st0" d="M1087.5,845.7c3.7,0,3.7-5.7,0-5.7C1083.8,839.9,1083.8,845.7,1087.5,845.7L1087.5,845.7z"/>
	</g>
	<g>
		<path class="st0" d="M575.1,631.2c3.7,0,3.7-5.7,0-5.7C571.4,625.5,571.4,631.2,575.1,631.2L575.1,631.2z"/>
	</g>
	<g>
		<path class="st0" d="M497.7,704.2c3.7,0,3.7-5.7,0-5.7C493.9,698.4,493.9,704.2,497.7,704.2L497.7,704.2z"/>
	</g>
	<g>
		<path class="st0" d="M323.4,821.8c3.7,0,3.7-5.7,0-5.7C319.7,816.1,319.7,821.8,323.4,821.8L323.4,821.8z"/>
	</g>
	<g>
		<path class="st0" d="M77.6,516.5c3.7,0,3.7-5.7,0-5.7C74,510.8,74,516.5,77.6,516.5L77.6,516.5z"/>
	</g>
	<g>
		<path class="st0" d="M92.5,318.4c3.7,0,3.7-5.7,0-5.7C88.8,312.6,88.8,318.4,92.5,318.4L92.5,318.4z"/>
	</g>
	<g>
		<path class="st0" d="M430.6,509.1c3.7,0,3.7-5.7,0-5.7C427,503.3,426.9,509.1,430.6,509.1L430.6,509.1z"/>
	</g>
	<g>
		<path class="st0" d="M1218.5,387c3.7,0,3.7-5.7,0-5.7C1214.8,381.2,1214.8,387,1218.5,387L1218.5,387z"/>
	</g>
	<g>
		<path class="st0" d="M776.2,1030.4c3.7,0,3.7-5.7,0-5.7C772.5,1024.6,772.5,1030.4,776.2,1030.4L776.2,1030.4z"/>
	</g>
	<g>
		<path class="st0" d="M663,988.7c3.7,0,3.7-5.7,0-5.7C659.3,982.9,659.2,988.7,663,988.7L663,988.7z"/>
	</g>
	<g>
		<path class="st0" d="M46.4,356.4c2.8,0,2.8-4.3,0-4.3C43.6,352.1,43.6,356.4,46.4,356.4L46.4,356.4z"/>
	</g>
	<g>
		<path class="st0" d="M819.4,197.1c2.8,0,2.8-4.3,0-4.3S816.6,197.1,819.4,197.1L819.4,197.1z"/>
	</g>
	<g>
		<path class="st0" d="M1233.4,489c2.8,0,2.8-4.3,0-4.3S1230.6,489,1233.4,489L1233.4,489z"/>
	</g>
	<g>
		<path class="st0" d="M1358.5,900.1c2.8,0,2.8-4.3,0-4.3C1355.8,895.7,1355.8,900.1,1358.5,900.1L1358.5,900.1z"/>
	</g>
	<g>
		<path class="st0" d="M241.5,783.9c2.8,0,2.8-4.3,0-4.3S238.7,783.9,241.5,783.9L241.5,783.9z"/>
	</g>
	<g>
		<path class="st0" d="M168.5,859.8c2.8,0,2.8-4.3,0-4.3S165.7,859.8,168.5,859.8L168.5,859.8z"/>
	</g>
	<g>
		<path class="st0" d="M536.4,276c2.8,0,2.8-4.3,0-4.3C533.6,271.7,533.6,276,536.4,276L536.4,276z"/>
	</g>
	<g>
		<path class="st0" d="M1075.6,171.8c2.8,0,2.8-4.3,0-4.3S1072.8,171.8,1075.6,171.8L1075.6,171.8z"/>
	</g>
	<g>
		<path class="st0" d="M859.6,460.7c2.8,0,2.8-4.3,0-4.3C856.8,456.4,856.8,460.7,859.6,460.7L859.6,460.7z"/>
	</g>
	<g>
		<path class="st0" d="M889.4,903c2.8,0,2.8-4.3,0-4.3C886.6,898.7,886.6,903,889.4,903L889.4,903z"/>
	</g>
	<g>
		<path class="st0" d="M79.1,350.6c1.1,0,1.1-1.7,0-1.7C78,348.9,78,350.6,79.1,350.6L79.1,350.6z"/>
	</g>
	<g>
		<path class="st0" d="M38.9,507.1c1.1,0,1.1-1.7,0-1.7C37.8,505.3,37.8,507.1,38.9,507.1L38.9,507.1z"/>
	</g>
	<g>
		<path class="st0" d="M31.5,661.9c1.1,0,1.1-1.7,0-1.7S30.4,661.9,31.5,661.9L31.5,661.9z"/>
	</g>
	<g>
		<path class="st0" d="M113.4,724.5c1.1,0,1.1-1.7,0-1.7S112.3,724.5,113.4,724.5L113.4,724.5z"/>
	</g>
	<g>
		<path class="st0" d="M156.6,569.6c1.1,0,1.1-1.7,0-1.7C155.5,567.9,155.5,569.6,156.6,569.6L156.6,569.6z"/>
	</g>
	<g>
		<path class="st0" d="M183.4,414.7c1.1,0,1.1-1.7,0-1.7C182.3,413,182.3,414.7,183.4,414.7L183.4,414.7z"/>
	</g>
	<g>
		<path class="st0" d="M117.9,462.4c1.1,0,1.1-1.7,0-1.7C116.7,460.7,116.7,462.4,117.9,462.4L117.9,462.4z"/>
	</g>
	<g>
		<path class="st0" d="M107.4,426.6c1.1,0,1.1-1.7,0-1.7C106.3,424.9,106.3,426.6,107.4,426.6L107.4,426.6z"/>
	</g>
	<g>
		<path class="st0" d="M797,434.1c1.1,0,1.1-1.7,0-1.7C795.9,432.3,795.9,434.1,797,434.1L797,434.1z"/>
	</g>
	<g>
		<path class="st0" d="M1440.5,356.6c1.1,0,1.1-1.7,0-1.7C1439.3,354.9,1439.3,356.6,1440.5,356.6L1440.5,356.6z"/>
	</g>
	<g>
		<path class="st0" d="M1409.2,669.4c1.1,0,1.1-1.7,0-1.7S1408.1,669.4,1409.2,669.4L1409.2,669.4z"/>
	</g>
	<g>
		<path class="st0" d="M691.3,538.6c1.5,0,1.5-2.3,0-2.3C689.8,536.3,689.8,538.6,691.3,538.6L691.3,538.6z"/>
	</g>
	<g>
		<path class="st0" d="M625.7,614.6c1.5,0,1.5-2.3,0-2.3C624.3,612.3,624.3,614.6,625.7,614.6L625.7,614.6z"/>
	</g>
	<g>
		<path class="st0" d="M642.1,684.6c1.5,0,1.5-2.3,0-2.3C640.6,682.3,640.6,684.6,642.1,684.6L642.1,684.6z"/>
	</g>
	<g>
		<path class="st0" d="M588.5,549.1c1.5,0,1.5-2.3,0-2.3C587,546.7,587,549.1,588.5,549.1L588.5,549.1z"/>
	</g>
	<g>
		<path class="st0" d="M558.7,477.5c1.5,0,1.5-2.3,0-2.3C557.3,475.3,557.2,477.5,558.7,477.5L558.7,477.5z"/>
	</g>
	<g>
		<path class="st0" d="M828.3,342c1.5,0,1.5-2.3,0-2.3S826.8,342,828.3,342L828.3,342z"/>
	</g>
	<g>
		<path class="st0" d="M877.5,221.4c1.5,0,1.5-2.3,0-2.3C876,219.1,876,221.4,877.5,221.4L877.5,221.4z"/>
	</g>
	<g>
		<path class="st0" d="M1275.1,225.8c1.5,0,1.5-2.3,0-2.3C1273.6,223.5,1273.6,225.8,1275.1,225.8L1275.1,225.8z"/>
	</g>
	<g>
		<path class="st0" d="M1172.4,607.1c1.5,0,1.5-2.3,0-2.3C1170.9,604.8,1170.9,607.1,1172.4,607.1L1172.4,607.1z"/>
	</g>
	<g>
		<path class="st0" d="M1346.6,747.1c1.5,0,1.5-2.3,0-2.3C1345.1,744.8,1345.1,747.1,1346.6,747.1L1346.6,747.1z"/>
	</g>
	<g>
		<path class="st0" d="M1220,891.6c1.5,0,1.5-2.3,0-2.3C1218.5,889.3,1218.5,891.6,1220,891.6L1220,891.6z"/>
	</g>
	<g>
		<path class="st0" d="M978.7,1013.8c1.5,0,1.5-2.3,0-2.3C977.2,1011.4,977.2,1013.8,978.7,1013.8L978.7,1013.8z"/>
	</g>
	<g>
		<path class="st0" d="M1173.8,944c1.8,0,1.8-2.9,0-2.9C1172,941.2,1172,944,1173.8,944L1173.8,944z"/>
	</g>
	<g>
		<path class="st0" d="M870,999.2c1.8,0,1.8-2.9,0-2.9C868.1,996.3,868.1,999.2,870,999.2L870,999.2z"/>
	</g>
	<g>
		<path class="st0" d="M204.2,958.9c1.8,0,1.8-2.9,0-2.9S202.4,958.9,204.2,958.9L204.2,958.9z"/>
	</g>
	<g>
		<path class="st0" d="M491.7,914.2c1.8,0,1.8-2.9,0-2.9C489.9,911.4,489.8,914.2,491.7,914.2L491.7,914.2z"/>
	</g>
	<g>
		<path class="st0" d="M688.3,991.7c1.8,0,1.8-2.9,0-2.9C686.5,988.8,686.5,991.7,688.3,991.7L688.3,991.7z"/>
	</g>
	<g>
		<path class="st0" d="M433.6,463c1.8,0,1.8-2.9,0-2.9C431.8,460.1,431.7,463,433.6,463L433.6,463z"/>
	</g>
	<g>
		<path class="st0" d="M397.9,503.2c1.8,0,1.8-2.9,0-2.9C396,500.3,396,503.2,397.9,503.2L397.9,503.2z"/>
	</g>
	<g>
		<path class="st0" d="M345.7,145.7c1.8,0,1.8-2.9,0-2.9C343.9,142.8,343.9,145.7,345.7,145.7L345.7,145.7z"/>
	</g>
	<g>
		<path class="st0" d="M665.8,429.9c5.5,0,5.5-8.6,0-8.6C660.3,421.3,660.3,429.9,665.8,429.9L665.8,429.9z"/>
	</g>
	<g>
		<path class="st0" d="M205.6,709.2c5.5,0,5.5-8.6,0-8.6C200.1,700.6,200.1,709.2,205.6,709.2L205.6,709.2z"/>
	</g>
	<g>
		<path class="st0" d="M437,962.5c3.7,0,3.7-5.7,0-5.7C433.3,956.7,433.3,962.5,437,962.5L437,962.5z"/>
	</g>
	<g>
		<path class="st0" d="M703.3,73.4c3.7,0,3.7-5.7,0-5.7C699.6,67.6,699.6,73.4,703.3,73.4L703.3,73.4z"/>
	</g>
	<g>
		<path class="st0" d="M1336.2,86.9c3.7,0,3.7-5.7,0-5.7C1332.5,81.1,1332.5,86.9,1336.2,86.9L1336.2,86.9z"/>
	</g>
	<g>
		<path class="st0" d="M1422,29.9c1.8,0,1.8-2.9,0-2.9S1420.2,29.9,1422,29.9L1422,29.9z"/>
	</g>
	<g>
		<path class="st0" d="M631,38.3c1.8,0,1.8-2.9,0-2.9C629.1,35.4,629.1,38.3,631,38.3L631,38.3z"/>
	</g>
	<g>
		<path class="st0" d="M1103.9,69.7c1.1,0,1.1-1.7,0-1.7C1102.8,68,1102.8,69.7,1103.9,69.7L1103.9,69.7z"/>
	</g>
	<g>
		<path class="st0" d="M960.9,71.4c1.1,0,1.1-1.7,0-1.7C959.7,69.7,959.7,71.4,960.9,71.4L960.9,71.4z"/>
	</g>
	<g>
		<path class="st0" d="M102.4,74.8c1.1,0,1.1-1.7,0-1.7C101.3,73,101.3,74.8,102.4,74.8L102.4,74.8z"/>
	</g>
	<g>
		<path class="st0" d="M870,1000.8c3.7,0,3.7-5.7,0-5.7C866.3,995.1,866.3,1000.8,870,1000.8L870,1000.8z"/>
	</g>
</g>
<g>
	<g>
		<path class="st0" d="M1519,197.4c1.8,0,1.8-2.9,0-2.9S1517.2,197.4,1519,197.4L1519,197.4z"/>
	</g>
	<g>
		<path class="st0" d="M1596.9,253.8c1.8,0,1.8-2.9,0-2.9C1595.1,250.9,1595.1,253.8,1596.9,253.8L1596.9,253.8z"/>
	</g>
	<g>
		<path class="st0" d="M1698,259.9c1.8,0,1.8-2.9,0-2.9C1696.1,257,1696.1,259.9,1698,259.9L1698,259.9z"/>
	</g>
	<g>
		<path class="st0" d="M2007.7,274.3c1.8,0,1.8-2.9,0-2.9C2005.8,271.4,2005.8,274.3,2007.7,274.3L2007.7,274.3z"/>
	</g>
	<g>
		<path class="st0" d="M2359.2,670.4c1.8,0,1.8-2.9,0-2.9C2357.3,667.6,2357.3,670.4,2359.2,670.4L2359.2,670.4z"/>
	</g>
	<g>
		<path class="st0" d="M2375,486c1.8,0,1.8-2.9,0-2.9C2373.2,483.2,2373.2,486,2375,486L2375,486z"/>
	</g>
	<g>
		<path class="st0" d="M1787.3,546.6c1.8,0,1.8-2.9,0-2.9C1785.4,543.7,1785.4,546.6,1787.3,546.6L1787.3,546.6z"/>
	</g>
	<g>
		<path class="st0" d="M1765.7,669c1.8,0,1.8-2.9,0-2.9S1763.8,669,1765.7,669L1765.7,669z"/>
	</g>
	<g>
		<path class="st0" d="M1738.3,414c0-0.5,0-1,0-1.4c0-0.8-0.7-1.5-1.4-1.4c-0.8,0.1-1.4,0.6-1.4,1.4c0,0.5,0,1,0,1.4
			c0,0.8,0.7,1.5,1.4,1.4C1737.6,415.4,1738.3,414.8,1738.3,414L1738.3,414z"/>
	</g>
	<g>
		<path class="st0" d="M2592.6,353.5c1.8,0,1.8-2.9,0-2.9C2590.7,350.6,2590.7,353.5,2592.6,353.5L2592.6,353.5z"/>
	</g>
	<g>
		<path class="st0" d="M2844.6,481.7c1.8,0,1.8-2.9,0-2.9C2842.8,478.9,2842.8,481.7,2844.6,481.7L2844.6,481.7z"/>
	</g>
	<g>
		<path class="st0" d="M2524.9,844.7c1.8,0,1.8-2.9,0-2.9C2523,841.9,2523,844.7,2524.9,844.7L2524.9,844.7z"/>
	</g>
	<g>
		<path class="st0" d="M1831.2,282.7c3.7,0,3.7-5.7,0-5.7S1827.5,282.7,1831.2,282.7L1831.2,282.7z"/>
	</g>
	<g>
		<path class="st0" d="M1881.9,71.2c3.7,0,3.7-5.7,0-5.7S1878.2,71.2,1881.9,71.2L1881.9,71.2z"/>
	</g>
	<g>
		<path class="st0" d="M1677.8,203.8c3.7,0,3.7-5.7,0-5.7S1674.1,203.8,1677.8,203.8L1677.8,203.8z"/>
	</g>
	<g>
		<path class="st0" d="M2120.2,227.6c3.7,0,3.7-5.7,0-5.7C2116.5,221.8,2116.5,227.6,2120.2,227.6L2120.2,227.6z"/>
	</g>
	<g>
		<path class="st0" d="M2333.1,617.8c3.7,0,3.7-5.7,0-5.7C2329.4,612,2329.4,617.8,2333.1,617.8L2333.1,617.8z"/>
	</g>
	<g>
		<path class="st0" d="M2190.2,719.1c3.7,0,3.7-5.7,0-5.7C2186.5,713.3,2186.5,719.1,2190.2,719.1L2190.2,719.1z"/>
	</g>
	<g>
		<path class="st0" d="M2400.2,808.4c3.7,0,3.7-5.7,0-5.7S2396.5,808.4,2400.2,808.4L2400.2,808.4z"/>
	</g>
	<g>
		<path class="st0" d="M2261.7,851.7c3.7,0,3.7-5.7,0-5.7C2258,845.9,2258,851.7,2261.7,851.7L2261.7,851.7z"/>
	</g>
	<g>
		<path class="st0" d="M2526.8,845.7c3.7,0,3.7-5.7,0-5.7C2523.1,839.9,2523.1,845.7,2526.8,845.7L2526.8,845.7z"/>
	</g>
	<g>
		<path class="st0" d="M2014.4,631.2c3.7,0,3.7-5.7,0-5.7C2010.7,625.5,2010.7,631.2,2014.4,631.2L2014.4,631.2z"/>
	</g>
	<g>
		<path class="st0" d="M1937,704.2c3.7,0,3.7-5.7,0-5.7C1933.3,698.4,1933.3,704.2,1937,704.2L1937,704.2z"/>
	</g>
	<g>
		<path class="st0" d="M1762.7,821.8c3.7,0,3.7-5.7,0-5.7C1759,816.1,1759,821.8,1762.7,821.8L1762.7,821.8z"/>
	</g>
	<g>
		<path class="st0" d="M1516.9,516.5c3.7,0,3.7-5.7,0-5.7C1513.3,510.8,1513.3,516.5,1516.9,516.5L1516.9,516.5z"/>
	</g>
	<g>
		<path class="st0" d="M1531.8,318.4c3.7,0,3.7-5.7,0-5.7C1528.1,312.6,1528.1,318.4,1531.8,318.4L1531.8,318.4z"/>
	</g>
	<g>
		<path class="st0" d="M1869.9,509.1c3.7,0,3.7-5.7,0-5.7C1866.3,503.3,1866.2,509.1,1869.9,509.1L1869.9,509.1z"/>
	</g>
	<g>
		<path class="st0" d="M2657.9,387c3.7,0,3.7-5.7,0-5.7C2654.1,381.2,2654.1,387,2657.9,387L2657.9,387z"/>
	</g>
	<g>
		<path class="st0" d="M2215.5,1030.4c3.7,0,3.7-5.7,0-5.7C2211.8,1024.6,2211.8,1030.4,2215.5,1030.4L2215.5,1030.4z"/>
	</g>
	<g>
		<path class="st0" d="M2102.3,988.7c3.7,0,3.7-5.7,0-5.7C2098.6,982.9,2098.6,988.7,2102.3,988.7L2102.3,988.7z"/>
	</g>
	<g>
		<path class="st0" d="M1485.7,356.4c2.8,0,2.8-4.3,0-4.3S1482.9,356.4,1485.7,356.4L1485.7,356.4z"/>
	</g>
	<g>
		<path class="st0" d="M2258.7,197.1c2.8,0,2.8-4.3,0-4.3S2255.9,197.1,2258.7,197.1L2258.7,197.1z"/>
	</g>
	<g>
		<path class="st0" d="M2672.8,489c2.8,0,2.8-4.3,0-4.3C2670,484.7,2670,489,2672.8,489L2672.8,489z"/>
	</g>
	<g>
		<path class="st0" d="M2797.8,900.1c2.8,0,2.8-4.3,0-4.3C2795.1,895.7,2795.1,900.1,2797.8,900.1L2797.8,900.1z"/>
	</g>
	<g>
		<path class="st0" d="M1680.8,783.9c2.8,0,2.8-4.3,0-4.3S1678,783.9,1680.8,783.9L1680.8,783.9z"/>
	</g>
	<g>
		<path class="st0" d="M1607.8,859.8c2.8,0,2.8-4.3,0-4.3S1605,859.8,1607.8,859.8L1607.8,859.8z"/>
	</g>
	<g>
		<path class="st0" d="M1975.7,276c2.8,0,2.8-4.3,0-4.3C1972.9,271.7,1972.9,276,1975.7,276L1975.7,276z"/>
	</g>
	<g>
		<path class="st0" d="M2514.9,171.8c2.8,0,2.8-4.3,0-4.3C2512.1,167.4,2512.1,171.8,2514.9,171.8L2514.9,171.8z"/>
	</g>
	<g>
		<path class="st0" d="M2298.9,460.7c2.8,0,2.8-4.3,0-4.3C2296.1,456.4,2296.1,460.7,2298.9,460.7L2298.9,460.7z"/>
	</g>
	<g>
		<path class="st0" d="M2328.7,903c2.8,0,2.8-4.3,0-4.3C2325.9,898.7,2325.9,903,2328.7,903L2328.7,903z"/>
	</g>
	<g>
		<path class="st0" d="M1518.5,350.6c1.1,0,1.1-1.7,0-1.7C1517.3,348.9,1517.3,350.6,1518.5,350.6L1518.5,350.6z"/>
	</g>
	<g>
		<path class="st0" d="M1478.2,507.1c1.1,0,1.1-1.7,0-1.7C1477.1,505.3,1477.1,507.1,1478.2,507.1L1478.2,507.1z"/>
	</g>
	<g>
		<path class="st0" d="M1470.8,661.9c1.1,0,1.1-1.7,0-1.7C1469.7,660.2,1469.7,661.9,1470.8,661.9L1470.8,661.9z"/>
	</g>
	<g>
		<path class="st0" d="M1552.7,724.5c1.1,0,1.1-1.7,0-1.7S1551.6,724.5,1552.7,724.5L1552.7,724.5z"/>
	</g>
	<g>
		<path class="st0" d="M1595.9,569.6c1.1,0,1.1-1.7,0-1.7C1594.8,567.9,1594.8,569.6,1595.9,569.6L1595.9,569.6z"/>
	</g>
	<g>
		<path class="st0" d="M1622.7,414.7c1.1,0,1.1-1.7,0-1.7C1621.6,413,1621.6,414.7,1622.7,414.7L1622.7,414.7z"/>
	</g>
	<g>
		<path class="st0" d="M1557.2,462.4c1.1,0,1.1-1.7,0-1.7C1556.1,460.7,1556.1,462.4,1557.2,462.4L1557.2,462.4z"/>
	</g>
	<g>
		<path class="st0" d="M1546.7,426.6c1.1,0,1.1-1.7,0-1.7S1545.6,426.6,1546.7,426.6L1546.7,426.6z"/>
	</g>
	<g>
		<path class="st0" d="M2236.4,434.1c1.1,0,1.1-1.7,0-1.7C2235.2,432.3,2235.2,434.1,2236.4,434.1L2236.4,434.1z"/>
	</g>
	<g>
		<path class="st0" d="M2879.8,356.6c1.1,0,1.1-1.7,0-1.7C2878.7,354.9,2878.7,356.6,2879.8,356.6L2879.8,356.6z"/>
	</g>
	<g>
		<path class="st0" d="M2848.5,669.4c1.1,0,1.1-1.7,0-1.7C2847.4,667.7,2847.4,669.4,2848.5,669.4L2848.5,669.4z"/>
	</g>
	<g>
		<path class="st0" d="M2130.6,538.6c1.5,0,1.5-2.3,0-2.3C2129.1,536.3,2129.1,538.6,2130.6,538.6L2130.6,538.6z"/>
	</g>
	<g>
		<path class="st0" d="M2065,614.6c1.5,0,1.5-2.3,0-2.3S2063.6,614.6,2065,614.6L2065,614.6z"/>
	</g>
	<g>
		<path class="st0" d="M2081.4,684.6c1.5,0,1.5-2.3,0-2.3S2079.9,684.6,2081.4,684.6L2081.4,684.6z"/>
	</g>
	<g>
		<path class="st0" d="M2027.8,549.1c1.5,0,1.5-2.3,0-2.3C2026.3,546.7,2026.3,549.1,2027.8,549.1L2027.8,549.1z"/>
	</g>
	<g>
		<path class="st0" d="M1998.1,477.5c1.5,0,1.5-2.3,0-2.3C1996.6,475.3,1996.5,477.5,1998.1,477.5L1998.1,477.5z"/>
	</g>
	<g>
		<path class="st0" d="M2267.6,342c1.5,0,1.5-2.3,0-2.3S2266.2,342,2267.6,342L2267.6,342z"/>
	</g>
	<g>
		<path class="st0" d="M2316.8,221.4c1.5,0,1.5-2.3,0-2.3C2315.3,219.1,2315.3,221.4,2316.8,221.4L2316.8,221.4z"/>
	</g>
	<g>
		<path class="st0" d="M2714.4,225.8c1.5,0,1.5-2.3,0-2.3S2712.9,225.8,2714.4,225.8L2714.4,225.8z"/>
	</g>
	<g>
		<path class="st0" d="M2611.7,607.1c1.5,0,1.5-2.3,0-2.3C2610.2,604.8,2610.2,607.1,2611.7,607.1L2611.7,607.1z"/>
	</g>
	<g>
		<path class="st0" d="M2785.9,747.1c1.5,0,1.5-2.3,0-2.3S2784.5,747.1,2785.9,747.1L2785.9,747.1z"/>
	</g>
	<g>
		<path class="st0" d="M2659.3,891.6c1.5,0,1.5-2.3,0-2.3C2657.9,889.3,2657.9,891.6,2659.3,891.6L2659.3,891.6z"/>
	</g>
	<g>
		<path class="st0" d="M2418,1013.8c1.5,0,1.5-2.3,0-2.3C2416.6,1011.4,2416.6,1013.8,2418,1013.8L2418,1013.8z"/>
	</g>
	<g>
		<path class="st0" d="M2613.2,944c1.8,0,1.8-2.9,0-2.9C2611.3,941.2,2611.3,944,2613.2,944L2613.2,944z"/>
	</g>
	<g>
		<path class="st0" d="M2309.3,999.2c1.8,0,1.8-2.9,0-2.9C2307.5,996.3,2307.5,999.2,2309.3,999.2L2309.3,999.2z"/>
	</g>
	<g>
		<path class="st0" d="M1643.5,958.9c1.8,0,1.8-2.9,0-2.9C1641.7,956,1641.7,958.9,1643.5,958.9L1643.5,958.9z"/>
	</g>
	<g>
		<path class="st0" d="M1931,914.2c1.8,0,1.8-2.9,0-2.9C1929.2,911.4,1929.1,914.2,1931,914.2L1931,914.2z"/>
	</g>
	<g>
		<path class="st0" d="M2127.6,991.7c1.8,0,1.8-2.9,0-2.9C2125.8,988.8,2125.8,991.7,2127.6,991.7L2127.6,991.7z"/>
	</g>
	<g>
		<path class="st0" d="M1872.9,463c1.8,0,1.8-2.9,0-2.9C1871.1,460.1,1871.1,463,1872.9,463L1872.9,463z"/>
	</g>
	<g>
		<path class="st0" d="M1837.2,503.2c1.8,0,1.8-2.9,0-2.9S1835.3,503.2,1837.2,503.2L1837.2,503.2z"/>
	</g>
	<g>
		<path class="st0" d="M1785,145.7c1.8,0,1.8-2.9,0-2.9S1783.2,145.7,1785,145.7L1785,145.7z"/>
	</g>
	<g>
		<path class="st0" d="M2105.1,429.9c5.5,0,5.5-8.6,0-8.6C2099.6,421.3,2099.6,429.9,2105.1,429.9L2105.1,429.9z"/>
	</g>
	<g>
		<path class="st0" d="M1645,709.2c5.5,0,5.5-8.6,0-8.6C1639.4,700.6,1639.4,709.2,1645,709.2L1645,709.2z"/>
	</g>
	<g>
		<path class="st0" d="M1876.3,962.5c3.7,0,3.7-5.7,0-5.7C1872.6,956.7,1872.6,962.5,1876.3,962.5L1876.3,962.5z"/>
	</g>
	<g>
		<path class="st0" d="M2142.7,73.4c3.7,0,3.7-5.7,0-5.7C2139,67.6,2139,73.4,2142.7,73.4L2142.7,73.4z"/>
	</g>
	<g>
		<path class="st0" d="M2775.6,86.9c3.7,0,3.7-5.7,0-5.7C2771.8,81.1,2771.8,86.9,2775.6,86.9L2775.6,86.9z"/>
	</g>
	<g>
		<path class="st0" d="M2861.4,29.9c1.8,0,1.8-2.9,0-2.9C2859.5,27,2859.5,29.9,2861.4,29.9L2861.4,29.9z"/>
	</g>
	<g>
		<path class="st0" d="M2070.3,38.3c1.8,0,1.8-2.9,0-2.9S2068.5,38.3,2070.3,38.3L2070.3,38.3z"/>
	</g>
	<g>
		<path class="st0" d="M2543.3,69.7c1.1,0,1.1-1.7,0-1.7C2542.1,68,2542.1,69.7,2543.3,69.7L2543.3,69.7z"/>
	</g>
	<g>
		<path class="st0" d="M2400.2,71.4c1.1,0,1.1-1.7,0-1.7S2399.1,71.4,2400.2,71.4L2400.2,71.4z"/>
	</g>
	<g>
		<path class="st0" d="M1541.8,74.8c1.1,0,1.1-1.7,0-1.7S1540.6,74.8,1541.8,74.8L1541.8,74.8z"/>
	</g>
	<g>
		<path class="st0" d="M2309.3,1000.8c3.7,0,3.7-5.7,0-5.7C2305.6,995.1,2305.6,1000.8,2309.3,1000.8L2309.3,1000.8z"/>
	</g>
</g>
<g>
	<g>
		<path class="st0" d="M79.7,1250.4c1.8,0,1.8-2.9,0-2.9C77.9,1247.5,77.9,1250.4,79.7,1250.4L79.7,1250.4z"/>
	</g>
	<g>
		<path class="st0" d="M157.6,1306.7c1.8,0,1.8-2.9,0-2.9C155.7,1303.8,155.7,1306.7,157.6,1306.7L157.6,1306.7z"/>
	</g>
	<g>
		<path class="st0" d="M258.6,1312.8c1.8,0,1.8-2.9,0-2.9S256.8,1312.8,258.6,1312.8L258.6,1312.8z"/>
	</g>
	<g>
		<path class="st0" d="M568.4,1327.2c1.8,0,1.8-2.9,0-2.9C566.5,1324.3,566.5,1327.2,568.4,1327.2L568.4,1327.2z"/>
	</g>
	<g>
		<path class="st0" d="M919.9,1723.4c1.8,0,1.8-2.9,0-2.9C918,1720.5,918,1723.4,919.9,1723.4L919.9,1723.4z"/>
	</g>
	<g>
		<path class="st0" d="M935.7,1539c1.8,0,1.8-2.9,0-2.9C933.9,1536.1,933.9,1539,935.7,1539L935.7,1539z"/>
	</g>
	<g>
		<path class="st0" d="M348,1599.5c1.8,0,1.8-2.9,0-2.9S346.1,1599.5,348,1599.5L348,1599.5z"/>
	</g>
	<g>
		<path class="st0" d="M326.3,1721.9c1.8,0,1.8-2.9,0-2.9C324.5,1719,324.5,1721.9,326.3,1721.9L326.3,1721.9z"/>
	</g>
	<g>
		<path class="st0" d="M299,1467c0-0.5,0-1,0-1.4c0-0.8-0.7-1.5-1.4-1.4c-0.8,0.1-1.4,0.6-1.4,1.4c0,0.5,0,1,0,1.4
			c0,0.8,0.7,1.5,1.4,1.4C298.3,1468.4,299,1467.8,299,1467L299,1467z"/>
	</g>
	<g>
		<path class="st0" d="M1153.2,1406.5c1.8,0,1.8-2.9,0-2.9C1151.4,1403.6,1151.4,1406.5,1153.2,1406.5L1153.2,1406.5z"/>
	</g>
	<g>
		<path class="st0" d="M1405.3,1534.7c1.8,0,1.8-2.9,0-2.9C1403.5,1531.8,1403.5,1534.7,1405.3,1534.7L1405.3,1534.7z"/>
	</g>
	<g>
		<path class="st0" d="M1085.5,1897.7c1.8,0,1.8-2.9,0-2.9C1083.7,1894.8,1083.7,1897.7,1085.5,1897.7L1085.5,1897.7z"/>
	</g>
	<g>
		<path class="st0" d="M391.9,1335.6c3.7,0,3.7-5.7,0-5.7C388.2,1329.9,388.2,1335.6,391.9,1335.6L391.9,1335.6z"/>
	</g>
	<g>
		<path class="st0" d="M442.6,1124.1c3.7,0,3.7-5.7,0-5.7C438.9,1118.4,438.9,1124.1,442.6,1124.1L442.6,1124.1z"/>
	</g>
	<g>
		<path class="st0" d="M238.5,1256.7c3.7,0,3.7-5.7,0-5.7S234.8,1256.7,238.5,1256.7L238.5,1256.7z"/>
	</g>
	<g>
		<path class="st0" d="M680.9,1280.5c3.7,0,3.7-5.7,0-5.7C677.2,1274.7,677.2,1280.5,680.9,1280.5L680.9,1280.5z"/>
	</g>
	<g>
		<path class="st0" d="M893.8,1670.7c3.7,0,3.7-5.7,0-5.7S890.1,1670.7,893.8,1670.7L893.8,1670.7z"/>
	</g>
	<g>
		<path class="st0" d="M750.9,1772c3.7,0,3.7-5.7,0-5.7C747.1,1766.2,747.1,1772,750.9,1772L750.9,1772z"/>
	</g>
	<g>
		<path class="st0" d="M960.9,1861.4c3.7,0,3.7-5.7,0-5.7C957.2,1855.6,957.2,1861.4,960.9,1861.4L960.9,1861.4z"/>
	</g>
	<g>
		<path class="st0" d="M822.4,1904.6c3.7,0,3.7-5.7,0-5.7C818.7,1898.8,818.7,1904.6,822.4,1904.6L822.4,1904.6z"/>
	</g>
	<g>
		<path class="st0" d="M1087.5,1898.6c3.7,0,3.7-5.7,0-5.7C1083.8,1892.8,1083.8,1898.6,1087.5,1898.6L1087.5,1898.6z"/>
	</g>
	<g>
		<path class="st0" d="M575.1,1684.1c3.7,0,3.7-5.7,0-5.7C571.4,1678.4,571.4,1684.1,575.1,1684.1L575.1,1684.1z"/>
	</g>
	<g>
		<path class="st0" d="M497.7,1757.1c3.7,0,3.7-5.7,0-5.7C493.9,1751.3,493.9,1757.1,497.7,1757.1L497.7,1757.1z"/>
	</g>
	<g>
		<path class="st0" d="M323.4,1874.8c3.7,0,3.7-5.7,0-5.7S319.7,1874.8,323.4,1874.8L323.4,1874.8z"/>
	</g>
	<g>
		<path class="st0" d="M77.6,1569.5c3.7,0,3.7-5.7,0-5.7C74,1563.7,74,1569.5,77.6,1569.5L77.6,1569.5z"/>
	</g>
	<g>
		<path class="st0" d="M92.5,1371.4c3.7,0,3.7-5.7,0-5.7C88.8,1365.6,88.8,1371.4,92.5,1371.4L92.5,1371.4z"/>
	</g>
	<g>
		<path class="st0" d="M430.6,1562c3.7,0,3.7-5.7,0-5.7C427,1556.3,426.9,1562,430.6,1562L430.6,1562z"/>
	</g>
	<g>
		<path class="st0" d="M1218.5,1439.9c3.7,0,3.7-5.7,0-5.7C1214.8,1434.1,1214.8,1439.9,1218.5,1439.9L1218.5,1439.9z"/>
	</g>
	<g>
		<path class="st0" d="M776.2,2083.3c3.7,0,3.7-5.7,0-5.7C772.5,2077.5,772.5,2083.3,776.2,2083.3L776.2,2083.3z"/>
	</g>
	<g>
		<path class="st0" d="M663,2041.6c3.7,0,3.7-5.7,0-5.7C659.3,2035.8,659.2,2041.6,663,2041.6L663,2041.6z"/>
	</g>
	<g>
		<path class="st0" d="M46.4,1409.4c2.8,0,2.8-4.3,0-4.3C43.6,1405.1,43.6,1409.4,46.4,1409.4L46.4,1409.4z"/>
	</g>
	<g>
		<path class="st0" d="M819.4,1250c2.8,0,2.8-4.3,0-4.3S816.6,1250,819.4,1250L819.4,1250z"/>
	</g>
	<g>
		<path class="st0" d="M1233.4,1541.9c2.8,0,2.8-4.3,0-4.3S1230.6,1541.9,1233.4,1541.9L1233.4,1541.9z"/>
	</g>
	<g>
		<path class="st0" d="M1358.5,1953c2.8,0,2.8-4.3,0-4.3C1355.8,1948.7,1355.8,1953,1358.5,1953L1358.5,1953z"/>
	</g>
	<g>
		<path class="st0" d="M241.5,1836.8c2.8,0,2.8-4.3,0-4.3S238.7,1836.8,241.5,1836.8L241.5,1836.8z"/>
	</g>
	<g>
		<path class="st0" d="M168.5,1912.8c2.8,0,2.8-4.3,0-4.3S165.7,1912.8,168.5,1912.8L168.5,1912.8z"/>
	</g>
	<g>
		<path class="st0" d="M536.4,1329c2.8,0,2.8-4.3,0-4.3C533.6,1324.6,533.6,1329,536.4,1329L536.4,1329z"/>
	</g>
	<g>
		<path class="st0" d="M1075.6,1224.7c2.8,0,2.8-4.3,0-4.3S1072.8,1224.7,1075.6,1224.7L1075.6,1224.7z"/>
	</g>
	<g>
		<path class="st0" d="M859.6,1513.7c2.8,0,2.8-4.3,0-4.3C856.8,1509.3,856.8,1513.7,859.6,1513.7L859.6,1513.7z"/>
	</g>
	<g>
		<path class="st0" d="M889.4,1956c2.8,0,2.8-4.3,0-4.3C886.6,1951.6,886.6,1956,889.4,1956L889.4,1956z"/>
	</g>
	<g>
		<path class="st0" d="M79.1,1403.6c1.1,0,1.1-1.7,0-1.7S78,1403.6,79.1,1403.6L79.1,1403.6z"/>
	</g>
	<g>
		<path class="st0" d="M38.9,1560c1.1,0,1.1-1.7,0-1.7C37.8,1558.3,37.8,1560,38.9,1560L38.9,1560z"/>
	</g>
	<g>
		<path class="st0" d="M31.5,1714.9c1.1,0,1.1-1.7,0-1.7S30.4,1714.9,31.5,1714.9L31.5,1714.9z"/>
	</g>
	<g>
		<path class="st0" d="M113.4,1777.4c1.1,0,1.1-1.7,0-1.7S112.3,1777.4,113.4,1777.4L113.4,1777.4z"/>
	</g>
	<g>
		<path class="st0" d="M156.6,1622.6c1.1,0,1.1-1.7,0-1.7C155.5,1620.8,155.5,1622.6,156.6,1622.6L156.6,1622.6z"/>
	</g>
	<g>
		<path class="st0" d="M183.4,1467.7c1.1,0,1.1-1.7,0-1.7C182.3,1465.9,182.3,1467.7,183.4,1467.7L183.4,1467.7z"/>
	</g>
	<g>
		<path class="st0" d="M117.9,1515.3c1.1,0,1.1-1.7,0-1.7C116.7,1513.6,116.7,1515.3,117.9,1515.3L117.9,1515.3z"/>
	</g>
	<g>
		<path class="st0" d="M107.4,1479.6c1.1,0,1.1-1.7,0-1.7C106.3,1477.8,106.3,1479.6,107.4,1479.6L107.4,1479.6z"/>
	</g>
	<g>
		<path class="st0" d="M797,1487c1.1,0,1.1-1.7,0-1.7S795.9,1487,797,1487L797,1487z"/>
	</g>
	<g>
		<path class="st0" d="M1440.5,1409.6c1.1,0,1.1-1.7,0-1.7C1439.3,1407.9,1439.3,1409.6,1440.5,1409.6L1440.5,1409.6z"/>
	</g>
	<g>
		<path class="st0" d="M1409.2,1722.3c1.1,0,1.1-1.7,0-1.7S1408.1,1722.3,1409.2,1722.3L1409.2,1722.3z"/>
	</g>
	<g>
		<path class="st0" d="M691.3,1591.6c1.5,0,1.5-2.3,0-2.3C689.8,1589.2,689.8,1591.6,691.3,1591.6L691.3,1591.6z"/>
	</g>
	<g>
		<path class="st0" d="M625.7,1667.5c1.5,0,1.5-2.3,0-2.3C624.3,1665.2,624.3,1667.5,625.7,1667.5L625.7,1667.5z"/>
	</g>
	<g>
		<path class="st0" d="M642.1,1737.5c1.5,0,1.5-2.3,0-2.3C640.6,1735.2,640.6,1737.5,642.1,1737.5L642.1,1737.5z"/>
	</g>
	<g>
		<path class="st0" d="M588.5,1602c1.5,0,1.5-2.3,0-2.3C587,1599.7,587,1602,588.5,1602L588.5,1602z"/>
	</g>
	<g>
		<path class="st0" d="M558.7,1530.5c1.5,0,1.5-2.3,0-2.3C557.3,1528.2,557.2,1530.5,558.7,1530.5L558.7,1530.5z"/>
	</g>
	<g>
		<path class="st0" d="M828.3,1394.9c1.5,0,1.5-2.3,0-2.3S826.8,1394.9,828.3,1394.9L828.3,1394.9z"/>
	</g>
	<g>
		<path class="st0" d="M877.5,1274.3c1.5,0,1.5-2.3,0-2.3C876,1272,876,1274.3,877.5,1274.3L877.5,1274.3z"/>
	</g>
	<g>
		<path class="st0" d="M1275.1,1278.8c1.5,0,1.5-2.3,0-2.3C1273.6,1276.5,1273.6,1278.8,1275.1,1278.8L1275.1,1278.8z"/>
	</g>
	<g>
		<path class="st0" d="M1172.4,1660.1c1.5,0,1.5-2.3,0-2.3C1170.9,1657.7,1170.9,1660.1,1172.4,1660.1L1172.4,1660.1z"/>
	</g>
	<g>
		<path class="st0" d="M1346.6,1800.1c1.5,0,1.5-2.3,0-2.3C1345.1,1797.8,1345.1,1800.1,1346.6,1800.1L1346.6,1800.1z"/>
	</g>
	<g>
		<path class="st0" d="M1220,1944.6c1.5,0,1.5-2.3,0-2.3C1218.5,1942.2,1218.5,1944.6,1220,1944.6L1220,1944.6z"/>
	</g>
	<g>
		<path class="st0" d="M978.7,2066.7c1.5,0,1.5-2.3,0-2.3C977.2,2064.4,977.2,2066.7,978.7,2066.7L978.7,2066.7z"/>
	</g>
	<g>
		<path class="st0" d="M1173.8,1997c1.8,0,1.8-2.9,0-2.9C1172,1994.1,1172,1997,1173.8,1997L1173.8,1997z"/>
	</g>
	<g>
		<path class="st0" d="M870,2052.1c1.8,0,1.8-2.9,0-2.9C868.1,2049.2,868.1,2052.1,870,2052.1L870,2052.1z"/>
	</g>
	<g>
		<path class="st0" d="M204.2,2011.9c1.8,0,1.8-2.9,0-2.9S202.4,2011.9,204.2,2011.9L204.2,2011.9z"/>
	</g>
	<g>
		<path class="st0" d="M491.7,1967.2c1.8,0,1.8-2.9,0-2.9C489.9,1964.3,489.8,1967.2,491.7,1967.2L491.7,1967.2z"/>
	</g>
	<g>
		<path class="st0" d="M688.3,2044.6c1.8,0,1.8-2.9,0-2.9C686.5,2041.8,686.5,2044.6,688.3,2044.6L688.3,2044.6z"/>
	</g>
	<g>
		<path class="st0" d="M433.6,1515.9c1.8,0,1.8-2.9,0-2.9C431.8,1513,431.7,1515.9,433.6,1515.9L433.6,1515.9z"/>
	</g>
	<g>
		<path class="st0" d="M397.9,1556.1c1.8,0,1.8-2.9,0-2.9C396,1553.2,396,1556.1,397.9,1556.1L397.9,1556.1z"/>
	</g>
	<g>
		<path class="st0" d="M345.7,1198.7c1.8,0,1.8-2.9,0-2.9C343.9,1195.8,343.9,1198.7,345.7,1198.7L345.7,1198.7z"/>
	</g>
	<g>
		<path class="st0" d="M665.8,1482.8c5.5,0,5.5-8.6,0-8.6C660.3,1474.2,660.3,1482.8,665.8,1482.8L665.8,1482.8z"/>
	</g>
	<g>
		<path class="st0" d="M205.6,1762.2c5.5,0,5.5-8.6,0-8.6C200.1,1753.5,200.1,1762.2,205.6,1762.2L205.6,1762.2z"/>
	</g>
	<g>
		<path class="st0" d="M437,2015.4c3.7,0,3.7-5.7,0-5.7C433.3,2009.7,433.3,2015.4,437,2015.4L437,2015.4z"/>
	</g>
	<g>
		<path class="st0" d="M703.3,1126.3c3.7,0,3.7-5.7,0-5.7C699.6,1120.6,699.6,1126.3,703.3,1126.3L703.3,1126.3z"/>
	</g>
	<g>
		<path class="st0" d="M1336.2,1139.8c3.7,0,3.7-5.7,0-5.7C1332.5,1134.1,1332.5,1139.8,1336.2,1139.8L1336.2,1139.8z"/>
	</g>
	<g>
		<path class="st0" d="M1422,1082.8c1.8,0,1.8-2.9,0-2.9S1420.2,1082.8,1422,1082.8L1422,1082.8z"/>
	</g>
	<g>
		<path class="st0" d="M631,1091.2c1.8,0,1.8-2.9,0-2.9C629.1,1088.3,629.1,1091.2,631,1091.2L631,1091.2z"/>
	</g>
	<g>
		<path class="st0" d="M1103.9,1122.6c1.1,0,1.1-1.7,0-1.7C1102.8,1120.9,1102.8,1122.6,1103.9,1122.6L1103.9,1122.6z"/>
	</g>
	<g>
		<path class="st0" d="M960.9,1124.3c1.1,0,1.1-1.7,0-1.7C959.7,1122.6,959.7,1124.3,960.9,1124.3L960.9,1124.3z"/>
	</g>
	<g>
		<path class="st0" d="M102.4,1127.7c1.1,0,1.1-1.7,0-1.7C101.3,1126,101.3,1127.7,102.4,1127.7L102.4,1127.7z"/>
	</g>
	<g>
		<path class="st0" d="M870,2053.8c3.7,0,3.7-5.7,0-5.7S866.3,2053.8,870,2053.8L870,2053.8z"/>
	</g>
</g>
<g>
	<g>
		<path class="st0" d="M1519,1250.4c1.8,0,1.8-2.9,0-2.9S1517.2,1250.4,1519,1250.4L1519,1250.4z"/>
	</g>
	<g>
		<path class="st0" d="M1596.9,1306.7c1.8,0,1.8-2.9,0-2.9C1595.1,1303.8,1595.1,1306.7,1596.9,1306.7L1596.9,1306.7z"/>
	</g>
	<g>
		<path class="st0" d="M1698,1312.8c1.8,0,1.8-2.9,0-2.9C1696.1,1309.9,1696.1,1312.8,1698,1312.8L1698,1312.8z"/>
	</g>
	<g>
		<path class="st0" d="M2007.7,1327.2c1.8,0,1.8-2.9,0-2.9C2005.8,1324.3,2005.8,1327.2,2007.7,1327.2L2007.7,1327.2z"/>
	</g>
	<g>
		<path class="st0" d="M2359.2,1723.4c1.8,0,1.8-2.9,0-2.9C2357.3,1720.5,2357.3,1723.4,2359.2,1723.4L2359.2,1723.4z"/>
	</g>
	<g>
		<path class="st0" d="M2375,1539c1.8,0,1.8-2.9,0-2.9C2373.2,1536.1,2373.2,1539,2375,1539L2375,1539z"/>
	</g>
	<g>
		<path class="st0" d="M1787.3,1599.5c1.8,0,1.8-2.9,0-2.9C1785.4,1596.6,1785.4,1599.5,1787.3,1599.5L1787.3,1599.5z"/>
	</g>
	<g>
		<path class="st0" d="M1765.7,1721.9c1.8,0,1.8-2.9,0-2.9S1763.8,1721.9,1765.7,1721.9L1765.7,1721.9z"/>
	</g>
	<g>
		<path class="st0" d="M1738.3,1467c0-0.5,0-1,0-1.4c0-0.8-0.7-1.5-1.4-1.4c-0.8,0.1-1.4,0.6-1.4,1.4c0,0.5,0,1,0,1.4
			c0,0.8,0.7,1.5,1.4,1.4C1737.6,1468.4,1738.3,1467.8,1738.3,1467L1738.3,1467z"/>
	</g>
	<g>
		<path class="st0" d="M2592.6,1406.5c1.8,0,1.8-2.9,0-2.9C2590.7,1403.6,2590.7,1406.5,2592.6,1406.5L2592.6,1406.5z"/>
	</g>
	<g>
		<path class="st0" d="M2844.6,1534.7c1.8,0,1.8-2.9,0-2.9C2842.8,1531.8,2842.8,1534.7,2844.6,1534.7L2844.6,1534.7z"/>
	</g>
	<g>
		<path class="st0" d="M2524.9,1897.7c1.8,0,1.8-2.9,0-2.9C2523,1894.8,2523,1897.7,2524.9,1897.7L2524.9,1897.7z"/>
	</g>
	<g>
		<path class="st0" d="M1831.2,1335.6c3.7,0,3.7-5.7,0-5.7S1827.5,1335.6,1831.2,1335.6L1831.2,1335.6z"/>
	</g>
	<g>
		<path class="st0" d="M1881.9,1124.1c3.7,0,3.7-5.7,0-5.7S1878.2,1124.1,1881.9,1124.1L1881.9,1124.1z"/>
	</g>
	<g>
		<path class="st0" d="M1677.8,1256.7c3.7,0,3.7-5.7,0-5.7S1674.1,1256.7,1677.8,1256.7L1677.8,1256.7z"/>
	</g>
	<g>
		<path class="st0" d="M2120.2,1280.5c3.7,0,3.7-5.7,0-5.7C2116.5,1274.7,2116.5,1280.5,2120.2,1280.5L2120.2,1280.5z"/>
	</g>
	<g>
		<path class="st0" d="M2333.1,1670.7c3.7,0,3.7-5.7,0-5.7C2329.4,1665,2329.4,1670.7,2333.1,1670.7L2333.1,1670.7z"/>
	</g>
	<g>
		<path class="st0" d="M2190.2,1772c3.7,0,3.7-5.7,0-5.7C2186.5,1766.2,2186.5,1772,2190.2,1772L2190.2,1772z"/>
	</g>
	<g>
		<path class="st0" d="M2400.2,1861.4c3.7,0,3.7-5.7,0-5.7S2396.5,1861.4,2400.2,1861.4L2400.2,1861.4z"/>
	</g>
	<g>
		<path class="st0" d="M2261.7,1904.6c3.7,0,3.7-5.7,0-5.7C2258,1898.8,2258,1904.6,2261.7,1904.6L2261.7,1904.6z"/>
	</g>
	<g>
		<path class="st0" d="M2526.8,1898.6c3.7,0,3.7-5.7,0-5.7C2523.1,1892.8,2523.1,1898.6,2526.8,1898.6L2526.8,1898.6z"/>
	</g>
	<g>
		<path class="st0" d="M2014.4,1684.1c3.7,0,3.7-5.7,0-5.7C2010.7,1678.4,2010.7,1684.1,2014.4,1684.1L2014.4,1684.1z"/>
	</g>
	<g>
		<path class="st0" d="M1937,1757.1c3.7,0,3.7-5.7,0-5.7C1933.3,1751.3,1933.3,1757.1,1937,1757.1L1937,1757.1z"/>
	</g>
	<g>
		<path class="st0" d="M1762.7,1874.8c3.7,0,3.7-5.7,0-5.7S1759,1874.8,1762.7,1874.8L1762.7,1874.8z"/>
	</g>
	<g>
		<path class="st0" d="M1516.9,1569.5c3.7,0,3.7-5.7,0-5.7C1513.3,1563.7,1513.3,1569.5,1516.9,1569.5L1516.9,1569.5z"/>
	</g>
	<g>
		<path class="st0" d="M1531.8,1371.4c3.7,0,3.7-5.7,0-5.7C1528.1,1365.6,1528.1,1371.4,1531.8,1371.4L1531.8,1371.4z"/>
	</g>
	<g>
		<path class="st0" d="M1869.9,1562c3.7,0,3.7-5.7,0-5.7C1866.3,1556.3,1866.2,1562,1869.9,1562L1869.9,1562z"/>
	</g>
	<g>
		<path class="st0" d="M2657.9,1439.9c3.7,0,3.7-5.7,0-5.7C2654.1,1434.1,2654.1,1439.9,2657.9,1439.9L2657.9,1439.9z"/>
	</g>
	<g>
		<path class="st0" d="M2215.5,2083.3c3.7,0,3.7-5.7,0-5.7C2211.8,2077.5,2211.8,2083.3,2215.5,2083.3L2215.5,2083.3z"/>
	</g>
	<g>
		<path class="st0" d="M2102.3,2041.6c3.7,0,3.7-5.7,0-5.7C2098.6,2035.8,2098.6,2041.6,2102.3,2041.6L2102.3,2041.6z"/>
	</g>
	<g>
		<path class="st0" d="M1485.7,1409.4c2.8,0,2.8-4.3,0-4.3S1482.9,1409.4,1485.7,1409.4L1485.7,1409.4z"/>
	</g>
	<g>
		<path class="st0" d="M2258.7,1250c2.8,0,2.8-4.3,0-4.3S2255.9,1250,2258.7,1250L2258.7,1250z"/>
	</g>
	<g>
		<path class="st0" d="M2672.8,1541.9c2.8,0,2.8-4.3,0-4.3C2670,1537.6,2670,1541.9,2672.8,1541.9L2672.8,1541.9z"/>
	</g>
	<g>
		<path class="st0" d="M2797.8,1953c2.8,0,2.8-4.3,0-4.3C2795.1,1948.7,2795.1,1953,2797.8,1953L2797.8,1953z"/>
	</g>
	<g>
		<path class="st0" d="M1680.8,1836.8c2.8,0,2.8-4.3,0-4.3S1678,1836.8,1680.8,1836.8L1680.8,1836.8z"/>
	</g>
	<g>
		<path class="st0" d="M1607.8,1912.8c2.8,0,2.8-4.3,0-4.3S1605,1912.8,1607.8,1912.8L1607.8,1912.8z"/>
	</g>
	<g>
		<path class="st0" d="M1975.7,1329c2.8,0,2.8-4.3,0-4.3C1972.9,1324.6,1972.9,1329,1975.7,1329L1975.7,1329z"/>
	</g>
	<g>
		<path class="st0" d="M2514.9,1224.7c2.8,0,2.8-4.3,0-4.3C2512.1,1220.4,2512.1,1224.7,2514.9,1224.7L2514.9,1224.7z"/>
	</g>
	<g>
		<path class="st0" d="M2298.9,1513.7c2.8,0,2.8-4.3,0-4.3C2296.1,1509.3,2296.1,1513.7,2298.9,1513.7L2298.9,1513.7z"/>
	</g>
	<g>
		<path class="st0" d="M2328.7,1956c2.8,0,2.8-4.3,0-4.3C2325.9,1951.6,2325.9,1956,2328.7,1956L2328.7,1956z"/>
	</g>
	<g>
		<path class="st0" d="M1518.5,1403.6c1.1,0,1.1-1.7,0-1.7C1517.3,1401.9,1517.3,1403.6,1518.5,1403.6L1518.5,1403.6z"/>
	</g>
	<g>
		<path class="st0" d="M1478.2,1560c1.1,0,1.1-1.7,0-1.7S1477.1,1560,1478.2,1560L1478.2,1560z"/>
	</g>
	<g>
		<path class="st0" d="M1470.8,1714.9c1.1,0,1.1-1.7,0-1.7C1469.7,1713.1,1469.7,1714.9,1470.8,1714.9L1470.8,1714.9z"/>
	</g>
	<g>
		<path class="st0" d="M1552.7,1777.4c1.1,0,1.1-1.7,0-1.7S1551.6,1777.4,1552.7,1777.4L1552.7,1777.4z"/>
	</g>
	<g>
		<path class="st0" d="M1595.9,1622.6c1.1,0,1.1-1.7,0-1.7C1594.8,1620.8,1594.8,1622.6,1595.9,1622.6L1595.9,1622.6z"/>
	</g>
	<g>
		<path class="st0" d="M1622.7,1467.7c1.1,0,1.1-1.7,0-1.7S1621.6,1467.7,1622.7,1467.7L1622.7,1467.7z"/>
	</g>
	<g>
		<path class="st0" d="M1557.2,1515.3c1.1,0,1.1-1.7,0-1.7C1556.1,1513.6,1556.1,1515.3,1557.2,1515.3L1557.2,1515.3z"/>
	</g>
	<g>
		<path class="st0" d="M1546.7,1479.6c1.1,0,1.1-1.7,0-1.7S1545.6,1479.6,1546.7,1479.6L1546.7,1479.6z"/>
	</g>
	<g>
		<path class="st0" d="M2236.4,1487c1.1,0,1.1-1.7,0-1.7C2235.2,1485.3,2235.2,1487,2236.4,1487L2236.4,1487z"/>
	</g>
	<g>
		<path class="st0" d="M2879.8,1409.6c1.1,0,1.1-1.7,0-1.7C2878.7,1407.9,2878.7,1409.6,2879.8,1409.6L2879.8,1409.6z"/>
	</g>
	<g>
		<path class="st0" d="M2848.5,1722.3c1.1,0,1.1-1.7,0-1.7C2847.4,1720.6,2847.4,1722.3,2848.5,1722.3L2848.5,1722.3z"/>
	</g>
	<g>
		<path class="st0" d="M2130.6,1591.6c1.5,0,1.5-2.3,0-2.3C2129.1,1589.2,2129.1,1591.6,2130.6,1591.6L2130.6,1591.6z"/>
	</g>
	<g>
		<path class="st0" d="M2065,1667.5c1.5,0,1.5-2.3,0-2.3S2063.6,1667.5,2065,1667.5L2065,1667.5z"/>
	</g>
	<g>
		<path class="st0" d="M2081.4,1737.5c1.5,0,1.5-2.3,0-2.3S2079.9,1737.5,2081.4,1737.5L2081.4,1737.5z"/>
	</g>
	<g>
		<path class="st0" d="M2027.8,1602c1.5,0,1.5-2.3,0-2.3C2026.3,1599.7,2026.3,1602,2027.8,1602L2027.8,1602z"/>
	</g>
	<g>
		<path class="st0" d="M1998.1,1530.5c1.5,0,1.5-2.3,0-2.3C1996.6,1528.2,1996.5,1530.5,1998.1,1530.5L1998.1,1530.5z"/>
	</g>
	<g>
		<path class="st0" d="M2267.6,1394.9c1.5,0,1.5-2.3,0-2.3S2266.2,1394.9,2267.6,1394.9L2267.6,1394.9z"/>
	</g>
	<g>
		<path class="st0" d="M2316.8,1274.3c1.5,0,1.5-2.3,0-2.3C2315.3,1272,2315.3,1274.3,2316.8,1274.3L2316.8,1274.3z"/>
	</g>
	<g>
		<path class="st0" d="M2714.4,1278.8c1.5,0,1.5-2.3,0-2.3S2712.9,1278.8,2714.4,1278.8L2714.4,1278.8z"/>
	</g>
	<g>
		<path class="st0" d="M2611.7,1660.1c1.5,0,1.5-2.3,0-2.3C2610.2,1657.7,2610.2,1660.1,2611.7,1660.1L2611.7,1660.1z"/>
	</g>
	<g>
		<path class="st0" d="M2785.9,1800.1c1.5,0,1.5-2.3,0-2.3S2784.5,1800.1,2785.9,1800.1L2785.9,1800.1z"/>
	</g>
	<g>
		<path class="st0" d="M2659.3,1944.6c1.5,0,1.5-2.3,0-2.3C2657.9,1942.2,2657.9,1944.6,2659.3,1944.6L2659.3,1944.6z"/>
	</g>
	<g>
		<path class="st0" d="M2418,2066.7c1.5,0,1.5-2.3,0-2.3C2416.6,2064.4,2416.6,2066.7,2418,2066.7L2418,2066.7z"/>
	</g>
	<g>
		<path class="st0" d="M2613.2,1997c1.8,0,1.8-2.9,0-2.9C2611.3,1994.1,2611.3,1997,2613.2,1997L2613.2,1997z"/>
	</g>
	<g>
		<path class="st0" d="M2309.3,2052.1c1.8,0,1.8-2.9,0-2.9C2307.5,2049.2,2307.5,2052.1,2309.3,2052.1L2309.3,2052.1z"/>
	</g>
	<g>
		<path class="st0" d="M1643.5,2011.9c1.8,0,1.8-2.9,0-2.9C1641.7,2009,1641.7,2011.9,1643.5,2011.9L1643.5,2011.9z"/>
	</g>
	<g>
		<path class="st0" d="M1931,1967.2c1.8,0,1.8-2.9,0-2.9C1929.2,1964.3,1929.1,1967.2,1931,1967.2L1931,1967.2z"/>
	</g>
	<g>
		<path class="st0" d="M2127.6,2044.6c1.8,0,1.8-2.9,0-2.9C2125.8,2041.8,2125.8,2044.6,2127.6,2044.6L2127.6,2044.6z"/>
	</g>
	<g>
		<path class="st0" d="M1872.9,1515.9c1.8,0,1.8-2.9,0-2.9C1871.1,1513,1871.1,1515.9,1872.9,1515.9L1872.9,1515.9z"/>
	</g>
	<g>
		<path class="st0" d="M1837.2,1556.1c1.8,0,1.8-2.9,0-2.9S1835.3,1556.1,1837.2,1556.1L1837.2,1556.1z"/>
	</g>
	<g>
		<path class="st0" d="M1785,1198.7c1.8,0,1.8-2.9,0-2.9S1783.2,1198.7,1785,1198.7L1785,1198.7z"/>
	</g>
	<g>
		<path class="st0" d="M2105.1,1482.8c5.5,0,5.5-8.6,0-8.6C2099.6,1474.2,2099.6,1482.8,2105.1,1482.8L2105.1,1482.8z"/>
	</g>
	<g>
		<path class="st0" d="M1645,1762.2c5.5,0,5.5-8.6,0-8.6C1639.4,1753.5,1639.4,1762.2,1645,1762.2L1645,1762.2z"/>
	</g>
	<g>
		<path class="st0" d="M1876.3,2015.4c3.7,0,3.7-5.7,0-5.7C1872.6,2009.7,1872.6,2015.4,1876.3,2015.4L1876.3,2015.4z"/>
	</g>
	<g>
		<path class="st0" d="M2142.7,1126.3c3.7,0,3.7-5.7,0-5.7C2139,1120.6,2139,1126.3,2142.7,1126.3L2142.7,1126.3z"/>
	</g>
	<g>
		<path class="st0" d="M2775.6,1139.8c3.7,0,3.7-5.7,0-5.7C2771.8,1134.1,2771.8,1139.8,2775.6,1139.8L2775.6,1139.8z"/>
	</g>
	<g>
		<path class="st0" d="M2861.4,1082.8c1.8,0,1.8-2.9,0-2.9C2859.5,1079.9,2859.5,1082.8,2861.4,1082.8L2861.4,1082.8z"/>
	</g>
	<g>
		<path class="st0" d="M2070.3,1091.2c1.8,0,1.8-2.9,0-2.9S2068.5,1091.2,2070.3,1091.2L2070.3,1091.2z"/>
	</g>
	<g>
		<path class="st0" d="M2543.3,1122.6c1.1,0,1.1-1.7,0-1.7C2542.1,1120.9,2542.1,1122.6,2543.3,1122.6L2543.3,1122.6z"/>
	</g>
	<g>
		<path class="st0" d="M2400.2,1124.3c1.1,0,1.1-1.7,0-1.7S2399.1,1124.3,2400.2,1124.3L2400.2,1124.3z"/>
	</g>
	<g>
		<path class="st0" d="M1541.8,1127.7c1.1,0,1.1-1.7,0-1.7S1540.6,1127.7,1541.8,1127.7L1541.8,1127.7z"/>
	</g>
	<g>
		<path class="st0" d="M2309.3,2053.8c3.7,0,3.7-5.7,0-5.7C2305.6,2048,2305.6,2053.8,2309.3,2053.8L2309.3,2053.8z"/>
	</g>
</g>
</svg>
